<svg width="4" height="13" viewBox="0 0 4 13" fill="none" xmlns="http://www.w3.org/2000/svg">
<path d="M1.46872 0.999798C1.69272 1.3598 1.90272 1.7398 2.11272 2.1398C2.32272 2.5398 2.51406 2.9498 2.71472 3.3598C2.91539 3.76981 3.08339 4.1698 3.28406 4.60981C3.48472 5.0498 3.64339 5.50981 3.80206 5.9998C3.82966 6.08294 3.84927 6.177 3.85976 6.27653C3.87024 6.37605 3.8714 6.47906 3.86315 6.57954C3.8549 6.68003 3.83741 6.776 3.8117 6.86188C3.78599 6.94776 3.75257 7.02184 3.71339 7.0798C3.65242 7.17056 3.57996 7.21919 3.50572 7.21919C3.43149 7.21919 3.35903 7.17056 3.29806 7.0798C3.08339 6.7298 2.85939 6.3398 2.64939 5.9998C2.43939 5.65981 2.24806 5.1898 2.05206 4.7698C1.85606 4.3498 1.68339 3.8698 1.48739 3.4198C1.29139 2.9698 1.12805 2.5198 0.964721 1.9998C0.931409 1.85142 0.921172 1.68405 0.935513 1.52229C0.949853 1.36053 0.988016 1.21287 1.0444 1.10099C1.10078 0.989126 1.17242 0.918937 1.24879 0.900722C1.32516 0.882508 1.40224 0.917233 1.46872 0.999798Z" fill="black"/>
<path d="M3.8019 6.99964C3.63914 7.47903 3.46467 7.93967 3.27923 8.37964C3.09723 8.82964 2.90123 9.24964 2.71457 9.67963C2.5279 10.1096 2.3179 10.5096 2.11723 10.9097C1.91657 11.3096 1.68323 11.6897 1.46856 11.9996C1.43005 12.0593 1.38639 12.102 1.34013 12.1252C1.29386 12.1485 1.24591 12.1518 1.19903 12.1351C1.15216 12.1184 1.1073 12.0818 1.06705 12.0277C1.02681 11.9735 0.991972 11.9028 0.964564 11.8196C0.922432 11.6869 0.899902 11.5301 0.899902 11.3696C0.899902 11.2091 0.922432 11.0524 0.964564 10.9196C1.12323 10.4297 1.30523 9.97968 1.48256 9.52963C1.6599 9.07963 1.86057 8.65963 2.0519 8.23963C2.24323 7.81963 2.4439 7.40964 2.6539 7.01964C2.8639 6.62964 3.08323 6.27964 3.2979 5.91964C3.36705 5.80531 3.45327 5.74886 3.54043 5.76086C3.62759 5.77285 3.70973 5.85247 3.77149 5.9848C3.83325 6.11714 3.8704 6.29316 3.876 6.47993C3.88159 6.6667 3.85525 6.85146 3.8019 6.99964Z" fill="black"/>
</svg>
