<svg width="20" height="20" viewBox="0 0 20 20" fill="none" xmlns="http://www.w3.org/2000/svg">
<path fill-rule="evenodd" clip-rule="evenodd" d="M8.70338 3.22507C8.14432 3.00696 7.54763 2.9016 6.94768 2.91507C6.34773 2.92854 5.75637 3.06057 5.20766 3.30355C4.65896 3.54653 4.16374 3.89567 3.75053 4.33085L3.74425 4.33747L3.06636 5.03522C2.65118 5.46956 2.3255 5.98135 2.10788 6.54144C1.88991 7.10241 1.78463 7.70084 1.79804 8.30252C1.81145 8.9042 1.94329 9.49734 2.18603 10.0481C2.42876 10.5988 2.77764 11.0962 3.21273 11.5121L3.92357 12.1925L3.37043 12.7704L3.92704 12.1958C4.36086 12.6161 4.87383 12.9461 5.43618 13.1665C5.99854 13.387 6.59907 13.4936 7.20294 13.4801C7.80681 13.4666 8.40199 13.3333 8.95394 13.088C9.50324 12.8438 9.99883 12.4935 10.4123 12.0572L11.0406 11.3605C11.0498 11.3501 11.0591 11.34 11.0687 11.3302C11.9027 10.4518 12.3557 9.27919 12.3287 8.06796C12.3017 6.85406 11.7947 5.70038 10.9189 4.85951L10.2051 4.18596C9.7728 3.76976 9.26244 3.44318 8.70338 3.22507ZM11.7434 12.9703L17.1391 17.0388C17.4919 17.3048 17.9936 17.2344 18.2596 16.8816C18.5256 16.5289 18.4552 16.0272 18.1024 15.7612L12.7872 11.7535C13.5533 10.6745 13.9581 9.3709 13.9283 8.03232C13.8918 6.39388 13.207 4.8368 12.0241 3.70256L11.3118 3.03041C10.7281 2.46921 10.0393 2.0288 9.28491 1.73449C8.52924 1.43967 7.72271 1.29727 6.91177 1.31548C6.10083 1.33368 5.3015 1.51214 4.55982 1.84058C3.81958 2.16837 3.15137 2.6391 2.5935 3.22573L1.91657 3.92257L1.91244 3.92685C1.35096 4.51351 0.910596 5.20505 0.6165 5.96196C0.322403 6.71888 0.180342 7.52633 0.198434 8.33817C0.216526 9.15001 0.394417 9.95033 0.721941 10.6934C1.04938 11.4363 1.51996 12.1073 2.1068 12.6683L2.81558 13.3468C3.40117 13.9136 4.09341 14.3587 4.85221 14.6561C5.61181 14.9539 6.42299 15.0979 7.23867 15.0797C8.05435 15.0615 8.85829 14.8814 9.60383 14.55C10.3494 14.2186 11.0217 13.7425 11.5817 13.1491L11.5941 13.1358L11.7434 12.9703Z" fill="black"/>
<path d="M15.2992 12.46C14.4296 12.3904 13.4296 13.46 13.2992 14.46C13.2607 14.7351 13.2897 15.0154 13.3838 15.2768C13.4778 15.5381 13.6342 15.7726 13.8392 15.96C14.2696 16.46 17.2696 19.96 19.0792 17.36C19.2712 17.0864 19.4072 16.776 19.4792 16.4504C19.5496 16.0486 19.4677 15.6351 19.2496 15.2904C18.825 14.5692 18.2541 13.9448 17.5738 13.4573C16.8935 12.9699 16.1187 12.6302 15.2992 12.46Z" fill="black"/>
</svg>
