<svg width="20" height="16" viewBox="0 0 20 16" fill="none" xmlns="http://www.w3.org/2000/svg">
<path fill-rule="evenodd" clip-rule="evenodd" d="M19.9608 1.90537C19.2234 2.22443 18.4359 2.44179 17.6068 2.54104C18.4517 2.03988 19.1017 1.25001 19.4092 0.307582C18.6167 0.762803 17.7384 1.09417 16.8035 1.27872C16.0568 0.492131 14.9927 0 13.8111 0C11.547 0 9.71126 1.80694 9.71126 4.03301C9.71126 4.3529 9.74876 4.66048 9.81709 4.95494C6.4089 4.79664 3.38819 3.18573 1.36661 0.7505C1.01079 1.3427 0.811633 2.03086 0.811633 2.78054C0.811633 4.18311 1.5366 5.4159 2.63489 6.14015C1.96242 6.11883 1.32994 5.93674 0.778301 5.6349V5.68493C0.778301 7.64115 2.18908 9.27257 4.0665 9.64413C3.72234 9.73517 3.35903 9.78438 2.98654 9.78438C2.72489 9.78438 2.47406 9.75978 2.22324 9.71385C2.74905 11.3157 4.26066 12.4837 6.05975 12.5165C4.65981 13.5984 2.88571 14.2431 0.974959 14.2431C0.649973 14.2431 0.32582 14.2242 0 14.1881C1.82409 15.3315 3.97317 16 6.29724 16C13.8419 16 17.9626 9.85164 17.9626 4.52843C17.9626 4.357 17.9626 4.18393 17.9501 4.01169C18.7509 3.44656 19.45 2.73215 20 1.92177L19.9608 1.90537Z" fill="black"/>
</svg>
