<svg width="140" height="137" viewBox="0 0 140 137" fill="none" xmlns="http://www.w3.org/2000/svg">
<g id="IMAGE" clip-path="url(#clip0_1_881)">
<path id="Vector" d="M88.2609 0H51.5362C14.5072 0 0 15.3237 0 68.3985C0 123.401 14.5072 136.188 51.5362 136.188H88.2609C125.29 136.188 139.797 120.864 139.797 67.7896C139.899 12.7867 125.29 0 88.2609 0Z" fill="#5E76D0"/>
<path id="Vector_2" d="M55.35 52.7492C61.1981 57.3889 67.4811 60.7898 79.8179 62.22C80.1966 59.112 81.1038 56.0917 82.5004 53.2898C76.026 52.5196 69.8815 51.3477 65.6355 46.4259C64.0766 44.6178 62.4891 41.9966 60.8777 38.7393C60.6564 38.2931 60.3487 37.8954 59.9726 37.5692C59.5963 37.2429 59.159 36.9947 58.6862 36.8389C58.2132 36.6833 57.7141 36.623 57.2178 36.6618C56.7214 36.7006 56.2377 36.8377 55.7948 37.0651L47.3742 41.3939C41.4783 44.4217 42.4634 50.0707 44.9498 53.7872L48.1966 52.0939C49.3259 51.5038 50.6011 51.2518 51.8698 51.368C53.1384 51.4842 54.3468 51.9638 55.35 52.7492Z" fill="#F97EB4"/>
<path id="Vector_3" d="M79.4373 67.2808C79.5473 60.8426 80.9053 56.4133 82.5024 53.3091L84.1808 53.5004C91.5016 54.3135 99.0709 54.9831 104.665 60.2494L79.6525 73.1115C79.4817 71.1728 79.4098 69.2267 79.4373 67.2808Z" fill="white"/>
<path id="Vector_4" d="M79.4765 66.9169C79.5076 65.3517 79.6306 63.7897 79.8446 62.239C67.5079 60.804 61.2296 57.4079 55.3768 52.773C54.3727 51.9818 53.161 51.4985 51.8882 51.3814C50.6154 51.2642 49.3359 51.5183 48.2043 52.1129L44.9576 53.8062L23.3874 65.0179C22.9369 65.2528 22.5418 65.5815 22.229 65.9819C21.9162 66.3823 21.6929 66.8453 21.5741 67.3394C21.4554 67.8335 21.4439 68.3474 21.5407 68.8464C21.6374 69.3453 21.8399 69.8177 22.1346 70.2316C24.339 73.3455 26.4764 76.1963 28.5086 78.7888C32.3733 83.7568 36.4893 88.5238 40.8405 93.0714L53.6219 86.4993L79.6582 73.1063C79.4765 71.2839 79.4765 66.8738 79.4765 66.9169Z" fill="#FDB163"/>
<path id="Vector_5" d="M79.6529 73.1111L104.666 60.249C106.582 62.0859 108.14 64.2625 109.261 66.6681L46.7693 98.8015C46.7693 98.8015 44.5363 96.8883 40.8354 93.0617L53.6167 86.4896L79.6529 73.1111Z" fill="#391145"/>
<path id="Vector_6" d="M46.6778 81.2469C50.6919 81.2469 53.946 77.9919 53.946 73.9765C53.946 69.9612 50.6919 66.7061 46.6778 66.7061C42.6638 66.7061 39.4097 69.9612 39.4097 73.9765C39.4097 77.9919 42.6638 81.2469 46.6778 81.2469Z" fill="white"/>
<path id="Vector_7" d="M60.0087 60.9714L69.4429 48.5303" stroke="#391145" stroke-width="0.733758" stroke-linecap="round" stroke-linejoin="round"/>
<path id="Vector_8" d="M69.1638 65.2136L75.2939 50.8496" stroke="#391145" stroke-width="0.733758" stroke-linecap="round" stroke-linejoin="round"/>
</g>
<defs>
<clipPath id="clip0_1_881">
<rect width="140" height="137" fill="white"/>
</clipPath>
</defs>
</svg>
