<svg width="212" height="207" viewBox="0 0 212 207" fill="none" xmlns="http://www.w3.org/2000/svg">
<mask id="mask0_1_647" style="mask-type:alpha" maskUnits="userSpaceOnUse" x="0" y="0" width="212" height="207">
<path d="M133.718 0H78.079C21.9789 0 0 23.2165 0 103.629C0 186.963 21.9789 206.335 78.079 206.335H133.718C189.818 206.335 211.797 183.119 211.797 102.707C211.95 19.3728 189.818 0 133.718 0Z" fill="#5E76D0"/>
</mask>
<g mask="url(#mask0_1_647)">
<path d="M133.718 0H78.079C21.9789 0 0 23.2165 0 103.629C0 186.963 21.9789 206.335 78.079 206.335H133.718C189.818 206.335 211.797 183.119 211.797 102.707C211.95 19.3728 189.818 0 133.718 0Z" fill="#C0B3F9"/>
<path d="M19.8215 150.309L23.1488 143.101H60.4659L63.793 150.309H19.8215Z" fill="black" stroke="black" stroke-width="0.678659" stroke-miterlimit="10" stroke-linecap="round" stroke-linejoin="round"/>
<path d="M87.5098 150.309L90.8428 143.101H128.154L131.487 150.309H87.5098Z" fill="black" stroke="black" stroke-width="0.678659" stroke-miterlimit="10" stroke-linecap="round" stroke-linejoin="round"/>
<path d="M224.201 -18.9367L218.516 -23.9695C215.774 -26.5921 212.24 -27.9062 208.047 -27.9062C198.335 -27.9062 190.464 -20.0327 190.464 -10.3172C190.464 -7.00601 191.376 -3.91287 192.965 -1.26735C193.126 -0.997633 193.315 -0.75087 193.528 -0.515587L198.592 5.16568" fill="#A8A1A2"/>
<path d="M224.201 -18.9367L218.516 -23.9695C215.774 -26.5921 212.24 -27.9062 208.047 -27.9062C198.335 -27.9062 190.464 -20.0327 190.464 -10.3172C190.464 -7.00601 191.376 -3.91287 192.965 -1.26735C193.126 -0.997633 193.315 -0.750872 193.528 -0.515587L198.592 5.16568" stroke="#A8A1A2" stroke-width="0.678659" stroke-miterlimit="10" stroke-linecap="round" stroke-linejoin="round"/>
<path d="M211.426 10.7308C221.136 10.7308 229.009 2.8559 229.009 -6.85823C229.009 -16.5723 221.136 -24.4473 211.426 -24.4473C201.714 -24.4473 193.843 -16.5723 193.843 -6.85823C193.843 2.8559 201.714 10.7308 211.426 10.7308Z" fill="#A8A1A2" stroke="#A8A1A2" stroke-width="0.678659" stroke-miterlimit="10" stroke-linecap="round" stroke-linejoin="round"/>
<path d="M219.841 -22.3067C217.34 -23.6725 214.477 -24.4473 211.426 -24.4473C201.713 -24.4473 193.843 -16.5738 193.843 -6.85823C193.843 -3.37486 194.852 -0.132524 196.596 2.59908" stroke="black" stroke-width="0.678659" stroke-miterlimit="10" stroke-linecap="round" stroke-linejoin="round"/>
<path d="M190.07 -24.8193H197.137C206.011 -24.8193 213.211 -17.623 213.211 -8.73963C213.211 0.143816 206.017 7.34009 197.137 7.34009H190.07" fill="#F26B22"/>
<path d="M190.07 -24.8193H197.137C206.011 -24.8193 213.211 -17.623 213.211 -8.73963C213.211 0.143816 206.017 7.34009 197.137 7.34009H190.07" stroke="#F26B22" stroke-width="0.678659" stroke-miterlimit="10" stroke-linecap="round" stroke-linejoin="round"/>
<path d="M188.383 7.34009C197.26 7.34009 204.456 0.140957 204.456 -8.73963C204.456 -17.6202 197.26 -24.8193 188.383 -24.8193C179.505 -24.8193 172.308 -17.6202 172.308 -8.73963C172.308 0.140957 179.505 7.34009 188.383 7.34009Z" fill="#F26B22" stroke="#F26B22" stroke-width="0.678659" stroke-miterlimit="10" stroke-linecap="round" stroke-linejoin="round"/>
<path d="M196.42 -22.6675C188.767 -22.6675 182.56 -16.4582 182.56 -8.80284C182.56 -1.14748 188.767 5.06176 196.42 5.06176" stroke="black" stroke-width="0.678659" stroke-miterlimit="10" stroke-linecap="round" stroke-linejoin="round"/>
<path d="M188.383 -24.8193C197.257 -24.8193 204.456 -17.623 204.456 -8.73963C204.456 0.143816 197.262 7.34009 188.383 7.34009" stroke="black" stroke-width="0.678659" stroke-miterlimit="10" stroke-linecap="round" stroke-linejoin="round"/>
<path d="M435.554 150.687H151.073V203.724H435.554V150.687Z" fill="#A8A1A2" stroke="#A8A1A2" stroke-width="0.678659" stroke-miterlimit="10" stroke-linecap="round" stroke-linejoin="round"/>
<path d="M334.841 197.302H151.073V300.873H334.841V197.302Z" fill="#A8A1A2"/>
<path d="M151.073 150.727H-0.375427V300.299H151.073V150.727Z" fill="#A8A1A2" stroke="#A8A1A2" stroke-width="0.678659" stroke-miterlimit="10" stroke-linecap="round" stroke-linejoin="round"/>
<path d="M76.094 176.378C79.3162 176.378 81.9283 173.765 81.9283 170.542C81.9283 167.319 79.3162 164.706 76.094 164.706C72.8719 164.706 70.2599 167.319 70.2599 170.542C70.2599 173.765 72.8719 176.378 76.094 176.378Z" fill="#A8A1A2" stroke="black" stroke-width="0.678659" stroke-miterlimit="10" stroke-linecap="round" stroke-linejoin="round"/>
<path d="M70.2599 170.6H76.094" stroke="black" stroke-width="0.678659" stroke-miterlimit="10" stroke-linecap="round" stroke-linejoin="round"/>
<path d="M96.5386 176.378C99.7608 176.378 102.373 173.765 102.373 170.542C102.373 167.319 99.7608 164.706 96.5386 164.706C93.3165 164.706 90.7045 167.319 90.7045 170.542C90.7045 173.765 93.3165 176.378 96.5386 176.378Z" fill="#A8A1A2" stroke="black" stroke-width="0.678659" stroke-miterlimit="10" stroke-linecap="round" stroke-linejoin="round"/>
<path d="M90.7094 170.6H96.5379" stroke="black" stroke-width="0.678659" stroke-miterlimit="10" stroke-linecap="round" stroke-linejoin="round"/>
<path d="M137.441 176.378C140.663 176.378 143.274 173.765 143.274 170.542C143.274 167.319 140.663 164.706 137.441 164.706C134.218 164.706 131.606 167.319 131.606 170.542C131.606 173.765 134.218 176.378 137.441 176.378Z" fill="#A8A1A2" stroke="black" stroke-width="0.678659" stroke-miterlimit="10" stroke-linecap="round" stroke-linejoin="round"/>
<path d="M131.605 170.6H137.44" stroke="black" stroke-width="0.678659" stroke-miterlimit="10" stroke-linecap="round" stroke-linejoin="round"/>
<path d="M116.991 176.378C120.212 176.378 122.824 173.765 122.824 170.542C122.824 167.319 120.212 164.706 116.991 164.706C113.768 164.706 111.156 167.319 111.156 170.542C111.156 173.765 113.768 176.378 116.991 176.378Z" fill="#A8A1A2" stroke="black" stroke-width="0.678659" stroke-miterlimit="10" stroke-linecap="round" stroke-linejoin="round"/>
<path d="M116.99 170.542L121.292 166.604" stroke="black" stroke-width="0.678659" stroke-miterlimit="10" stroke-linecap="round" stroke-linejoin="round"/>
<path d="M-0.375427 160.373H151.073" stroke="black" stroke-width="0.678659" stroke-miterlimit="10" stroke-linecap="round" stroke-linejoin="round"/>
<path d="M151.073 180.712H-0.375427" stroke="black" stroke-width="0.678659" stroke-miterlimit="10" stroke-linecap="round" stroke-linejoin="round"/>
<path d="M150.947 300.299V150.727" stroke="black" stroke-width="0.678659" stroke-miterlimit="10" stroke-linecap="round" stroke-linejoin="round"/>
<path d="M31.9958 170.6H62.4632" stroke="black" stroke-width="0.678659" stroke-miterlimit="10" stroke-linecap="round" stroke-linejoin="round"/>
<path d="M133.631 210.088C136.682 210.088 139.155 207.613 139.155 204.561C139.155 201.509 136.682 199.035 133.631 199.035C130.58 199.035 128.107 201.509 128.107 204.561C128.107 207.613 130.58 210.088 133.631 210.088Z" fill="black" stroke="black" stroke-width="0.678659" stroke-miterlimit="10" stroke-linecap="round" stroke-linejoin="round"/>
<path d="M133.631 270.486C132.524 270.486 131.63 269.591 131.63 268.483V205.048C131.63 203.941 132.524 202.999 133.631 202.999C134.739 202.999 135.633 203.941 135.633 205.048V268.483C135.633 269.591 134.739 270.486 133.631 270.486Z" fill="white"/>
<path d="M69.6049 191.431H30.0735C26.8322 191.431 24.2048 194.06 24.2048 197.302C24.2048 200.544 26.8322 203.173 30.0735 203.173H69.6049C72.846 203.173 75.4734 200.544 75.4734 197.302C75.4734 194.06 72.846 191.431 69.6049 191.431Z" stroke="black" stroke-width="0.678659" stroke-miterlimit="10" stroke-linecap="round" stroke-linejoin="round"/>
<path d="M435.56 195.058H151.073" stroke="black" stroke-width="0.678659" stroke-miterlimit="10" stroke-linecap="round" stroke-linejoin="round"/>
<path d="M275.925 170.6H169.613V174.049H275.925V170.6Z" fill="#A8A1A2" stroke="black" stroke-width="0.678659" stroke-miterlimit="10" stroke-linecap="round" stroke-linejoin="round"/>
<path d="M90.7104 196.958H119.141" stroke="black" stroke-width="0.678659" stroke-miterlimit="10" stroke-linecap="round" stroke-linejoin="round"/>
<path d="M169.613 178.777C173.396 178.777 176.462 175.709 176.462 171.925C176.462 168.141 173.396 165.073 169.613 165.073C165.83 165.073 162.763 168.141 162.763 171.925C162.763 175.709 165.83 178.777 169.613 178.777Z" fill="#A8A1A2" stroke="black" stroke-width="0.678659" stroke-miterlimit="10" stroke-linecap="round" stroke-linejoin="round"/>
<path d="M14.7749 200.205C16.378 200.205 17.6777 198.905 17.6777 197.302C17.6777 195.697 16.378 194.397 14.7749 194.397C13.1717 194.397 11.8721 195.697 11.8721 197.302C11.8721 198.905 13.1717 200.205 14.7749 200.205Z" fill="black"/>
<path d="M23.6328 166.664H7.13416V174.537H23.6328V166.664Z" fill="#A8A1A2" stroke="black" stroke-width="0.678659" stroke-miterlimit="10" stroke-linecap="round" stroke-linejoin="round"/>
<path d="M23.6328 170.6H7.13416V174.537H23.6328V170.6Z" fill="black" stroke="black" stroke-width="0.678659" stroke-miterlimit="10" stroke-linecap="round" stroke-linejoin="round"/>
<path d="M435.56 197.302H151.073" stroke="black" stroke-width="0.678659" stroke-miterlimit="10" stroke-linecap="round" stroke-linejoin="round"/>
<path d="M197.138 -24.8188C206.012 -24.8188 213.211 -17.6226 213.211 -8.73915C213.211 0.14429 206.017 7.34057 197.138 7.34057" stroke="black" stroke-width="0.678659" stroke-miterlimit="10" stroke-linecap="round" stroke-linejoin="round"/>
<path d="M224.203 -18.9354L224.191 -18.9468C223.473 -19.7044 222.693 -20.3988 221.85 -21.0186L218.517 -23.9739C215.775 -26.5965 212.241 -27.9106 208.048 -27.9106C204.337 -27.9106 200.894 -26.7571 198.055 -24.7946C197.75 -24.8117 197.441 -24.8232 197.137 -24.8232H190.07V-24.7372C189.513 -24.7946 188.951 -24.8232 188.383 -24.8232C179.508 -24.8232 172.308 -17.627 172.308 -8.74352C172.308 0.139916 179.502 7.33618 188.383 7.33618C188.951 7.33618 189.513 7.3075 190.07 7.25011V7.33618H197.137C198.312 7.33618 199.461 7.2042 200.567 6.96318C203.557 9.31603 207.331 10.7277 211.433 10.7277C221.144 10.7277 229.016 2.8543 229.016 -6.86124C229.01 -11.5325 227.18 -15.7849 224.203 -18.9354Z" stroke="black" stroke-width="0.678659" stroke-miterlimit="10" stroke-linecap="round" stroke-linejoin="round"/>
<path d="M435.56 203.724V150.687H151.073V203.724" stroke="black" stroke-width="0.678659" stroke-miterlimit="10" stroke-linecap="round" stroke-linejoin="round"/>
<path d="M151.073 300.586V197.302" stroke="black" stroke-width="0.678659" stroke-miterlimit="10" stroke-linecap="round" stroke-linejoin="round"/>
<path d="M-0.375427 300.586V150.727H153.097" stroke="black" stroke-width="0.678659" stroke-miterlimit="10" stroke-linecap="round" stroke-linejoin="round"/>
<path d="M133.633 270.486C132.526 270.486 131.632 269.591 131.632 268.483V205.049C131.632 203.941 132.526 203 133.633 203C134.741 203 135.635 203.941 135.635 205.049V268.483C135.635 269.591 134.741 270.486 133.633 270.486Z" stroke="black" stroke-width="0.678659" stroke-miterlimit="10" stroke-linecap="round" stroke-linejoin="round"/>
<path d="M170.196 162.761V284.248H144.06C144.06 284.248 154.793 237.73 146.269 216.865" fill="#F26B22"/>
<path d="M170.196 162.761V284.248H144.06C144.06 284.248 154.793 237.73 146.269 216.865" stroke="#F26B22" stroke-width="0.678659" stroke-miterlimit="10" stroke-linecap="round" stroke-linejoin="round"/>
<path d="M137.394 163.215C137.394 163.215 124.097 250.253 104.506 277.558C104.506 277.558 119.439 284.249 131.749 284.249L160.669 195.362C162.51 189.698 163.089 188.241 165.774 181.441C167.243 177.717 170.196 169.321 170.196 162.767L137.394 163.215Z" fill="#F26B22" stroke="#F26B22" stroke-width="0.678659" stroke-miterlimit="10" stroke-linecap="round" stroke-linejoin="round"/>
<path d="M170.196 163.594L137.055 164.047L170.196 171.106V163.594Z" fill="black" stroke="black" stroke-width="0.678659" stroke-miterlimit="10" stroke-linecap="round" stroke-linejoin="round"/>
<path d="M169.164 68.4922L176.071 82.7928C179.994 90.9131 180.74 100.21 178.164 108.852L170.19 135.617" fill="#F7F4DC"/>
<path d="M169.164 68.4922L176.071 82.7928C179.994 90.9131 180.74 100.21 178.164 108.852L170.19 135.617" stroke="#F7F4DC" stroke-width="0.678659" stroke-miterlimit="10" stroke-linecap="round" stroke-linejoin="round"/>
<path d="M170.707 160.19C172.549 159.621 174.281 158.428 175.084 156.672C175.887 154.916 175.537 152.592 173.994 151.433C175.411 150.411 176.26 148.638 176.163 146.893C176.066 145.149 175.027 143.479 173.501 142.624C175.366 141.442 176.364 139.043 175.887 136.885C175.411 134.733 173.495 132.971 171.309 132.684H166.84V160.19H170.707Z" fill="#F7BBA1"/>
<path d="M162.539 39.2834C158.701 35.3696 152.373 34.6465 147.802 37.1773C146.608 37.9004 145.524 38.8472 144.606 40.0122C142.678 42.4568 141.846 45.418 142.047 48.2988L140.584 48.6776C139.707 48.9071 139.185 49.8024 139.409 50.6804C139.638 51.5584 140.533 52.0864 141.411 51.8567L142.719 51.5182C143.017 52.3503 143.407 53.1537 143.883 53.9112C143.98 54.0662 144.078 54.2153 144.181 54.3703C144.227 54.4392 144.279 54.5081 144.33 54.5769C144.686 55.0704 145.065 55.5525 145.507 56.0001C150.119 60.7058 157.668 60.7747 162.373 56.1607C167.076 51.5412 167.151 43.9833 162.539 39.2834Z" fill="#F7BBA1"/>
<path d="M144.911 46.1235C145.367 46.1235 145.737 45.7534 145.737 45.2971C145.737 44.8407 145.367 44.4707 144.911 44.4707C144.454 44.4707 144.085 44.8407 144.085 45.2971C144.085 45.7534 144.454 46.1235 144.911 46.1235Z" fill="black"/>
<path d="M151.869 33.8724C150.463 32.5237 148.106 32.2885 146.482 33.3673C144.859 34.4462 144.17 36.7531 144.98 38.5264C145.782 40.2996 148.008 41.3039 149.856 40.6841C150.28 40.5407 150.774 40.3398 151.135 40.5924C151.416 40.7874 151.473 41.172 151.548 41.5048C151.858 42.8878 152.856 44.0929 154.158 44.6553L155.54 44.5061L159.849 44.0356L155.69 36.558L151.869 33.8724Z" fill="#F26B22" stroke="#F26B22" stroke-width="0.678659" stroke-miterlimit="10" stroke-linecap="round" stroke-linejoin="round"/>
<path d="M161.094 48.15C162.539 47.0826 162.848 45.0454 161.781 43.5993C160.714 42.1531 158.678 41.8432 157.232 42.9106C156.687 43.3123 156.309 43.846 156.097 44.4371" fill="#F7BBA1"/>
<path d="M161.094 48.15C162.539 47.0826 162.848 45.0454 161.781 43.5993C160.714 42.1531 158.678 41.8432 157.232 42.9106C156.687 43.3123 156.309 43.846 156.097 44.4371" stroke="black" stroke-width="0.678659" stroke-miterlimit="10" stroke-linecap="round" stroke-linejoin="round"/>
<path d="M159.894 18.802C157.783 21.0974 158.04 24.7759 160.479 27.014L152.637 35.5244L166.129 47.9486L173.971 39.4382C176.403 41.682 180.092 41.6361 182.203 39.3406C184.314 37.0451 184.057 33.3667 181.618 31.1286C180.264 29.8833 178.52 29.3439 176.88 29.5045C176.908 27.8519 176.226 26.1646 174.872 24.9136C173.518 23.6684 171.774 23.1289 170.134 23.2896C170.162 21.6369 169.479 19.9497 168.125 18.6986C165.688 16.4606 162.005 16.5066 159.894 18.802Z" fill="#F7F4DC" stroke="#F7F4DC" stroke-width="0.565549" stroke-miterlimit="10"/>
<path d="M163.991 40.0305L171.701 33.9131" stroke="black" stroke-width="0.678659" stroke-miterlimit="10" stroke-linecap="round" stroke-linejoin="round"/>
<path d="M160.119 36.2033L165.516 27.9683" stroke="black" stroke-width="0.678659" stroke-miterlimit="10" stroke-linecap="round" stroke-linejoin="round"/>
<path d="M144.262 50.9448L145.816 53.5559" stroke="black" stroke-width="0.678659" stroke-miterlimit="10" stroke-linecap="round" stroke-linejoin="round"/>
<path d="M145.961 50.1519L147.515 52.7629" stroke="black" stroke-width="0.678659" stroke-miterlimit="10" stroke-linecap="round" stroke-linejoin="round"/>
<path d="M147.509 49.2061L149.058 51.8114" stroke="black" stroke-width="0.678659" stroke-miterlimit="10" stroke-linecap="round" stroke-linejoin="round"/>
<path d="M146.19 56.6246L149.253 54.5645" stroke="black" stroke-width="0.678659" stroke-miterlimit="10" stroke-linecap="round" stroke-linejoin="round"/>
<path d="M169.796 72.469C169.796 65.3588 164.036 59.5972 156.929 59.5972C150.722 59.5972 145.542 63.993 144.33 69.8407H144.325C144.325 69.8407 134.125 94.362 131.756 163.593H170.197L169.796 72.469Z" fill="#F7F4DC" stroke="#F7F4DC" stroke-width="0.565549" stroke-miterlimit="10"/>
<path d="M118.324 124.973C115.967 125.34 113.557 124.732 111.331 123.871C109.106 123.016 106.972 121.909 104.688 121.209C102.405 120.513 99.8868 120.256 97.661 121.116C95.4351 121.978 93.6166 124.169 93.7428 126.551V130.235L101.528 136.829H119.139L118.324 124.973Z" fill="#F7BBA1"/>
<path d="M53.2597 59.8386C50.9076 61.5716 48.0164 62.5988 44.8842 62.5988C36.9905 62.5988 30.594 56.1027 30.594 48.0858C30.594 40.0689 36.9905 33.5728 44.8842 33.5728C50.8905 33.5728 56.0305 37.343 58.1416 42.6799C62.0195 38.1063 67.7562 35.2025 74.1641 35.2025C85.8382 35.2025 95.298 44.8148 95.298 56.6766C95.298 66.2888 89.0795 74.4262 80.5089 77.1636C81.6619 78.8278 82.3446 80.8478 82.3446 83.0343C82.3446 88.6753 77.8412 93.249 72.2881 93.249C72.0702 93.249 71.858 93.2319 71.64 93.2146C72.1218 94.7296 72.3799 96.3479 72.3799 98.0236C72.3799 102.43 70.5901 106.413 67.7104 109.266C68.6225 110.459 69.1674 111.951 69.1674 113.581C69.1674 117.478 66.0582 120.634 62.2261 120.634C61.4401 120.634 60.6886 120.496 59.983 120.25C57.7916 120.944 55.7953 122.292 54.3439 124.101C54.3496 124.181 54.3554 124.255 54.3554 124.335C54.3554 126.992 52.2327 130.498 49.6168 130.498C48.1368 130.498 46.8116 130.797 45.9397 129.713H38.4303C39.6122 126.303 43.4156 124.507 44.9989 121.265C45.7446 119.733 45.9397 117.983 46.0199 116.272C46.1921 112.715 45.2972 109.065 43.6967 106.144C42.2854 103.774 41.4708 101.002 41.4708 98.0293C41.4708 89.3582 48.3893 82.3284 56.9254 82.3284C58.7955 82.3284 60.5853 82.667 62.2433 83.281C62.2433 83.2007 62.2318 83.1146 62.2318 83.0343C62.2318 80.3142 63.2816 77.8522 64.9854 76.0216C58.807 72.9859 54.298 66.9832 53.2597 59.8386Z" fill="white" stroke="black" stroke-width="0.678659" stroke-miterlimit="10" stroke-linecap="round" stroke-linejoin="round"/>
<path d="M83.3725 118.322C86.3729 118.322 88.8051 115.852 88.8051 112.807C88.8051 109.761 86.3729 107.292 83.3725 107.292C80.3721 107.292 77.9398 109.761 77.9398 112.807C77.9398 115.852 80.3721 118.322 83.3725 118.322Z" stroke="black" stroke-width="0.678659" stroke-miterlimit="10" stroke-linecap="round" stroke-linejoin="round"/>
<path d="M80.7049 77.2842C77.6301 78.7935 74.0159 79.1493 70.7115 78.2655" stroke="black" stroke-width="0.678659" stroke-miterlimit="10" stroke-linecap="round" stroke-linejoin="round"/>
<path d="M62.2491 83.2798C64.4863 83.8536 66.5114 85.2309 67.8882 87.1075" stroke="black" stroke-width="0.678659" stroke-miterlimit="10" stroke-linecap="round" stroke-linejoin="round"/>
<path d="M70.5729 91.4121C71.3417 91.808 71.9325 92.5484 72.1562 93.3919" stroke="black" stroke-width="0.678659" stroke-miterlimit="10" stroke-linecap="round" stroke-linejoin="round"/>
<path d="M59.4282 120.07C57.4318 118.389 56.3763 115.629 56.7148 113.023" stroke="black" stroke-width="0.678659" stroke-miterlimit="10" stroke-linecap="round" stroke-linejoin="round"/>
<path d="M67.9575 109.397C66.5003 107.716 64.3319 106.689 62.1232 106.648" stroke="black" stroke-width="0.678659" stroke-miterlimit="10" stroke-linecap="round" stroke-linejoin="round"/>
<path d="M53.3059 90.0928C50.1048 91.6882 47.8217 95.051 47.5005 98.6607C47.1791 102.27 48.8256 105.995 51.6939 108.146" stroke="black" stroke-width="0.678659" stroke-miterlimit="10" stroke-linecap="round" stroke-linejoin="round"/>
<path d="M57.4493 53.6919C56.5141 56.0333 55.0628 58.1681 53.2328 59.8783" stroke="black" stroke-width="0.678659" stroke-miterlimit="10" stroke-linecap="round" stroke-linejoin="round"/>
<path d="M49.1474 122.166C47.8853 122.469 46.5143 122.32 45.3497 121.747" stroke="black" stroke-width="0.678659" stroke-miterlimit="10" stroke-linecap="round" stroke-linejoin="round"/>
<path d="M82.278 99.854C81.4863 98.7924 79.7883 98.5858 78.7729 99.4293" stroke="black" stroke-width="0.678659" stroke-miterlimit="10" stroke-linecap="round" stroke-linejoin="round"/>
<path d="M77.9111 113.449C78.1865 114.327 78.4618 115.211 78.9437 115.991C79.4256 116.771 80.1369 117.443 81.0147 117.666" stroke="black" stroke-width="0.678659" stroke-miterlimit="10" stroke-linecap="round" stroke-linejoin="round"/>
<path d="M68.0381 142.727C73.3388 142.727 77.6355 138.429 77.6355 133.126V129.649H11.9048V133.126C11.9048 138.429 16.2016 142.727 21.5023 142.727H68.0381Z" fill="#0D7C3B" stroke="#0D7C3B" stroke-width="0.678659" stroke-miterlimit="10" stroke-linecap="round" stroke-linejoin="round"/>
<path d="M110.868 134.579H77.6407V129.644H110.868C112.152 129.644 113.197 130.688 113.197 131.974V132.243C113.197 133.534 112.152 134.579 110.868 134.579Z" fill="black" stroke="black" stroke-width="0.565549" stroke-miterlimit="10" stroke-linecap="round" stroke-linejoin="round"/>
<path d="M116.651 131.956C115.372 132.49 113.559 133.3 112.612 134.31C112.715 132.714 110.816 131.584 109.245 131.882C107.673 132.181 106.468 133.42 105.458 134.653C105.43 132.909 104.391 131.159 102.768 130.522C101.437 130 99.8996 130.258 98.6145 130.889C97.3295 131.52 96.2511 132.49 95.1897 133.454H88.3517L87.8296 134.78C87.3191 137.058 87.124 139.446 87.6345 141.724C88.1452 144.002 89.4129 146.165 91.3634 147.445C93.3139 148.725 95.9814 148.989 98.0007 147.829C98.8555 149.173 100.519 149.861 102.108 149.804C103.697 149.746 105.206 149.041 106.485 148.093C108.109 149.511 111.425 149.792 113.404 148.943L116.651 131.956Z" fill="#F7BBA1"/>
<path d="M105.791 133.677C104.977 137.419 103.01 140.897 100.227 143.525" stroke="black" stroke-width="0.678659" stroke-miterlimit="10" stroke-linecap="round" stroke-linejoin="round"/>
<path d="M112.693 133.131C112.503 137.092 110.891 140.971 108.212 143.897" stroke="black" stroke-width="0.678659" stroke-miterlimit="10" stroke-linecap="round" stroke-linejoin="round"/>
<path d="M96.3487 132.443C95.0694 133.976 93.7385 135.691 92.2528 137.579" stroke="black" stroke-width="0.678659" stroke-miterlimit="10" stroke-linecap="round" stroke-linejoin="round"/>
<path d="M169.928 126.291C169.928 139.674 159.085 150.52 145.707 150.52H141.548H113.118L118.303 123.25H144.061L152.373 83.7681" fill="#F7F4DC"/>
<path d="M169.928 126.291C169.928 139.674 159.085 150.52 145.707 150.52H141.548H113.118L118.303 123.25H144.061L152.373 83.7681" stroke="#F7F4DC" stroke-width="0.678659" stroke-miterlimit="10" stroke-linecap="round" stroke-linejoin="round"/>
<path d="M140.544 105.041C142.315 105.041 143.75 103.606 143.75 101.834C143.75 100.062 142.315 98.626 140.544 98.626C138.773 98.626 137.337 100.062 137.337 101.834C137.337 103.606 138.773 105.041 140.544 105.041Z" stroke="black" stroke-width="0.678659" stroke-miterlimit="10" stroke-linecap="round" stroke-linejoin="round"/>
<path d="M143.087 90.4252C144.858 90.4252 146.293 88.9888 146.293 87.2172C146.293 85.4455 144.858 84.0093 143.087 84.0093C141.316 84.0093 139.879 85.4455 139.879 87.2172C139.879 88.9888 141.316 90.4252 143.087 90.4252Z" stroke="black" stroke-width="0.678659" stroke-miterlimit="10" stroke-linecap="round" stroke-linejoin="round"/>
<path d="M138.611 118.809C140.383 118.809 141.818 117.373 141.818 115.602C141.818 113.83 140.383 112.394 138.611 112.394C136.84 112.394 135.404 113.83 135.404 115.602C135.404 117.373 136.84 118.809 138.611 118.809Z" stroke="black" stroke-width="0.678659" stroke-miterlimit="10" stroke-linecap="round" stroke-linejoin="round"/>
<path d="M118.303 123.25H144.061L152.373 83.7622" stroke="black" stroke-width="0.678659" stroke-miterlimit="10" stroke-linecap="round" stroke-linejoin="round"/>
<path d="M165.516 140.117L170.197 156.351L169.83 128.49C169.824 128.484 169.165 136.381 165.516 140.117Z" fill="black" stroke="black" stroke-width="0.678659" stroke-miterlimit="10" stroke-linecap="round" stroke-linejoin="round"/>
<path d="M169.744 71.3447L169.928 126.292C169.928 139.675 159.085 150.521 145.708 150.521H141.548H131.75" stroke="black" stroke-width="0.678659" stroke-miterlimit="10" stroke-linecap="round" stroke-linejoin="round"/>
<path d="M169.796 88.6282L173.668 77.8281L169.744 69.6792L169.796 88.6282Z" fill="black" stroke="black" stroke-width="0.678659" stroke-miterlimit="10" stroke-linecap="round" stroke-linejoin="round"/>
<path d="M150.973 178.026C150.973 178.026 145.559 188.637 148.392 204.258" stroke="black" stroke-width="0.678659" stroke-miterlimit="10" stroke-linecap="round" stroke-linejoin="round"/>
<path d="M173.495 142.624H170.661" stroke="black" stroke-width="0.678659" stroke-miterlimit="10" stroke-linecap="round" stroke-linejoin="round"/>
<path d="M173.988 151.433H170.661" stroke="black" stroke-width="0.678659" stroke-miterlimit="10" stroke-linecap="round" stroke-linejoin="round"/>
<path d="M131.75 284.243L160.669 195.357C162.51 189.693 164.639 184.132 166.922 178.635" stroke="black" stroke-width="0.678659" stroke-miterlimit="10" stroke-linecap="round" stroke-linejoin="round"/>
<path d="M137.337 163.594C136.379 169.705 123.363 251.287 104.506 277.558C104.506 277.558 119.439 284.249 131.749 284.249L149.206 230.582C151.197 253.312 144.061 284.243 144.061 284.243H170.196V163.594" stroke="black" stroke-width="0.678659" stroke-miterlimit="10" stroke-linecap="round" stroke-linejoin="round"/>
<path d="M170.184 160.19H170.701C172.543 159.622 174.275 158.429 175.078 156.673C175.881 154.917 175.531 152.593 173.988 151.433C175.411 150.412 176.254 148.639 176.157 146.889C176.059 145.144 175.021 143.474 173.495 142.619C175.359 141.437 176.358 139.038 175.881 136.881C175.405 134.728 173.489 132.967 171.303 132.68" stroke="black" stroke-width="0.678659" stroke-miterlimit="10" stroke-linecap="round" stroke-linejoin="round"/>
<path d="M145.34 39.1567C145.081 39.4264 144.841 39.7076 144.605 40.006C142.677 42.4508 141.845 45.4119 142.046 48.2927L140.583 48.6714C139.706 48.901 139.184 49.7962 139.408 50.6743C139.637 51.5523 140.532 52.0802 141.41 51.8507L142.718 51.5121C143.016 52.3442 143.406 53.1476 143.882 53.9051C143.979 54.06 144.077 54.2093 144.18 54.3642C144.226 54.433 144.278 54.5019 144.329 54.5708C144.685 55.0643 145.064 55.5464 145.506 55.994C150.118 60.6997 157.667 60.7686 162.372 56.1547C164.712 53.8592 165.906 50.8292 165.945 47.7877" stroke="black" stroke-width="0.678659" stroke-miterlimit="10" stroke-linecap="round" stroke-linejoin="round"/>
<path d="M153.251 34.8537L151.862 33.8782C150.457 32.5296 148.099 32.2943 146.476 33.3732C144.852 34.452 144.163 36.7589 144.972 38.5322C145.776 40.3054 148.001 41.3098 149.848 40.69C150.273 40.5465 150.766 40.3456 151.128 40.5982C151.409 40.7933 151.466 41.1778 151.54 41.5106C151.851 42.8937 152.849 44.0987 154.151 44.6612L156.096 44.4315" stroke="black" stroke-width="0.678659" stroke-miterlimit="10" stroke-linecap="round" stroke-linejoin="round"/>
<path d="M159.893 18.802C157.782 21.0974 158.039 24.7759 160.478 27.014L152.636 35.5244L166.128 47.9486L173.97 39.4382C176.402 41.682 180.091 41.6361 182.202 39.3406C184.313 37.0452 184.056 33.3667 181.617 31.1286C180.263 29.8833 178.519 29.3439 176.879 29.5045C176.907 27.8519 176.225 26.1646 174.871 24.9136C173.517 23.6684 171.773 23.1289 170.133 23.2896C170.161 21.6369 169.478 19.9497 168.124 18.6986C165.687 16.4606 162.003 16.5066 159.893 18.802Z" stroke="black" stroke-width="0.678659" stroke-miterlimit="10" stroke-linecap="round" stroke-linejoin="round"/>
<path d="M117.849 124.972C115.491 125.34 113.564 124.731 111.332 123.87C109.106 123.015 106.973 121.908 104.689 121.208C102.406 120.508 99.8875 120.255 97.6616 121.115C95.4358 121.977 93.6173 124.169 93.7436 126.55V130.235L96.3479 132.438C95.9579 132.765 95.5735 133.104 95.2006 133.442H88.3625L87.8405 134.768C87.3299 137.046 87.1348 139.434 87.6455 141.712C88.156 143.99 89.4238 146.153 91.3742 147.433C93.3247 148.712 95.9923 148.977 98.0116 147.817C98.8664 149.161 100.53 149.849 102.119 149.792C103.709 149.734 105.217 149.028 106.496 148.081C108.12 149.499 111.435 149.78 113.415 148.925" stroke="black" stroke-width="0.678659" stroke-miterlimit="10" stroke-linecap="round" stroke-linejoin="round"/>
<path d="M170.197 163.593H131.755C131.911 159.043 132.1 154.693 132.318 150.52H113.118L118.303 123.25H134.354C138.215 84.5317 144.324 69.8465 144.324 69.8465H144.33C145.541 63.9988 150.721 59.603 156.929 59.603C162.648 59.603 167.489 63.3331 169.165 68.4979L176.072 82.7987C179.995 90.9189 180.742 100.216 178.165 108.858L170.191 135.623V163.593H170.197Z" stroke="black" stroke-width="0.678659" stroke-miterlimit="10" stroke-linecap="round" stroke-linejoin="round"/>
<path d="M68.0381 142.727C73.3388 142.727 77.6355 138.429 77.6355 133.126V129.649H11.9048V133.126C11.9048 138.429 16.2016 142.727 21.5023 142.727H68.0381Z" stroke="black" stroke-width="0.678659" stroke-miterlimit="10" stroke-linecap="round" stroke-linejoin="round"/>
</g>
</svg>
