<svg width="302" height="216" viewBox="0 0 302 216" fill="none" xmlns="http://www.w3.org/2000/svg">
<path d="M351.849 -46.2378H-366.77V406.758H351.849V-46.2378Z" fill="#EDE6D9"/>
<path d="M162.99 31.3328C165.797 39.6286 162.659 48.4201 155.987 50.7007C149.316 52.9811 139.275 48.1227 135.773 40.1244C132.174 31.8947 134.155 23.8964 141.52 19.8971C149.613 15.5014 160.182 23.0701 162.99 31.3328Z" fill="black"/>
<path d="M160.148 36.3895C158.86 35.7616 156.845 36.654 156.812 38.3727L163.22 35.6294C163.22 35.6294 161.205 34.1752 160.148 36.3895Z" fill="#EA5937"/>
<path d="M156.812 38.3721C159.521 39.3967 162.692 38.7357 163.22 35.6289L156.812 38.3721Z" fill="#EA5937"/>
<path d="M140.165 43.1982L134.022 56.7492L157.308 57.2119V48.9822L140.165 43.1982Z" fill="black"/>
<path d="M158.497 33.6462C159.683 33.6462 160.644 32.6844 160.644 31.4979C160.644 30.3115 159.683 29.3496 158.497 29.3496C157.312 29.3496 156.35 30.3115 156.35 31.4979C156.35 32.6844 157.312 33.6462 158.497 33.6462Z" fill="#667EBD"/>
<path d="M155.095 33.8778C155.861 33.8778 156.483 33.2564 156.483 32.4897C156.483 31.7231 155.861 31.1016 155.095 31.1016C154.329 31.1016 153.708 31.7231 153.708 32.4897C153.708 33.2564 154.329 33.8778 155.095 33.8778Z" fill="#667EBD"/>
<path d="M148.886 30.7709C149.36 30.7709 149.744 30.3862 149.744 29.9116C149.744 29.437 149.36 29.0522 148.886 29.0522C148.412 29.0522 148.027 29.437 148.027 29.9116C148.027 30.3862 148.412 30.7709 148.886 30.7709Z" fill="white"/>
<path d="M158.926 27.0361C159.4 27.0361 159.784 26.6513 159.784 26.1767C159.784 25.7021 159.4 25.3174 158.926 25.3174C158.452 25.3174 158.068 25.7021 158.068 26.1767C158.068 26.6513 158.452 27.0361 158.926 27.0361Z" fill="white"/>
<path d="M146.474 29.5478L144.955 27.8623C146.442 26.5403 148.027 25.747 149.778 25.5156L150.108 27.7962C148.787 27.9614 147.63 28.5233 146.474 29.5478Z" fill="#EA5937"/>
<path d="M156.416 25.9784L154.962 24.1938C156.25 23.1361 157.373 22.3759 158.992 21.8472L159.686 24.0285C158.398 24.4581 157.539 25.0531 156.416 25.9784Z" fill="#EA5937"/>
<path d="M152.783 25.0532L159.619 30.0769" stroke="#667EBD" stroke-width="0.325919" stroke-miterlimit="10"/>
<path d="M153.113 57.2119H175.805C184.491 57.2119 191.856 63.5576 193.144 72.1178L201.236 127.213L177.356 137.493L168.637 85.3712L159.29 85.5696L153.113 57.2119Z" fill="#F8B566"/>
<path opacity="0.5" d="M197.406 101.037L190.536 112.308L195.853 90.5933L197.406 101.037Z" fill="black"/>
<path d="M104.13 161.19L107.037 234.563C107.664 244.147 115.591 251.584 125.203 251.584C134.319 251.584 142.047 244.842 143.237 235.786L150.008 161.19H104.13Z" fill="#667EBD"/>
<path d="M150.041 161.19L174.45 243.255C176.002 247.32 180.097 249.8 184.425 249.238L196.843 247.618C204.473 246.627 209.394 239.057 207.215 231.687L194.697 161.19H150.041Z" fill="#667EBD"/>
<path d="M171.809 57.2116L116.98 56.5176L112.092 115.645L102.15 161.19H196.712L178.943 112.968L171.809 57.2116Z" fill="#F8B566"/>
<path d="M147.268 36.4227L166.094 33.9769V43.1981C166.094 47.5939 162.692 51.2295 158.299 51.4939C154.699 51.7253 151.263 49.9735 149.315 46.9329L139.869 32.126C139.241 31.1675 137.986 30.837 136.995 31.432C136.004 32.0269 135.64 33.2828 136.202 34.3074L140.463 46.1727C131.05 41.8761 128.639 28.4574 134.683 21.1531C140.727 13.8489 150.041 17.7489 154.831 16.526C157.771 15.7658 164.31 13.6836 166.094 13.221C167.117 12.9565 168.142 13.5184 168.472 14.5099C168.803 15.4684 168.307 16.526 167.382 16.9226L142.743 27.2345L147.268 36.4227Z" fill="#EA5937"/>
<path opacity="0.5" d="M199.783 189.811C184.524 202.271 161.238 198.9 161.238 198.9L150.041 161.222H194.697L199.783 189.811Z" fill="black"/>
<path opacity="0.5" d="M147.333 191.166C139.241 200.223 105.75 201.379 105.75 201.379L104.164 161.222H150.041L147.333 191.166Z" fill="black"/>
<path d="M137.292 54.6338L134.022 56.7159L144.625 63.5906L151.065 59.6905L157.275 57.0465L155.557 54.9643L137.292 54.6338Z" fill="black"/>
<path d="M144.625 63.5904L143.006 57.8726L134.022 56.7158L138.051 59.5913L144.625 63.5904Z" fill="#F8B566"/>
<path d="M147.168 57.6413L144.625 63.5904L157.572 57.0464L147.168 57.6413Z" fill="#F8B566"/>
<path d="M148.886 60.8139C149.36 60.8139 149.744 60.4291 149.744 59.9545C149.744 59.48 149.36 59.0952 148.886 59.0952C148.412 59.0952 148.027 59.48 148.027 59.9545C148.027 60.4291 148.412 60.8139 148.886 60.8139Z" stroke="black" stroke-width="0.325919" stroke-miterlimit="10"/>
<path d="M150.108 82.892C150.582 82.892 150.967 82.5073 150.967 82.0327C150.967 81.5581 150.582 81.1733 150.108 81.1733C149.634 81.1733 149.249 81.5581 149.249 82.0327C149.249 82.5073 149.634 82.892 150.108 82.892Z" stroke="black" stroke-width="0.325919" stroke-miterlimit="10"/>
<path d="M151.792 107.813C152.267 107.813 152.651 107.428 152.651 106.954C152.651 106.479 152.267 106.094 151.792 106.094C151.318 106.094 150.934 106.479 150.934 106.954C150.934 107.428 151.318 107.813 151.792 107.813Z" stroke="black" stroke-width="0.325919" stroke-miterlimit="10"/>
<path d="M154.5 158.909C154.975 158.909 155.359 158.524 155.359 158.049C155.359 157.575 154.975 157.19 154.5 157.19C154.026 157.19 153.641 157.575 153.641 158.049C153.641 158.524 154.026 158.909 154.5 158.909Z" stroke="black" stroke-width="0.325919" stroke-miterlimit="10"/>
<path d="M153.344 132.799C153.818 132.799 154.203 132.414 154.203 131.939C154.203 131.465 153.818 131.081 153.344 131.081C152.87 131.081 152.486 131.465 152.486 131.939C152.486 132.414 152.87 132.799 153.344 132.799Z" stroke="black" stroke-width="0.325919" stroke-miterlimit="10"/>
<path d="M113.082 103.516C120.513 88.4115 119.952 67.7216 116.946 56.4844" stroke="black" stroke-width="0.325919" stroke-miterlimit="10"/>
<path d="M102.15 161.19L146.045 168.428L150.01 159.835L102.15 161.19Z" fill="#F8B566"/>
<path d="M154.534 168.428L150.008 159.835L196.711 161.19L154.534 168.428Z" fill="#F8B566"/>
<path d="M144.625 63.5903L150.041 161.19" stroke="black" stroke-width="0.325919" stroke-miterlimit="10"/>
<path d="M174.351 78.4634H117.177L94.2216 188.126H204.341L174.351 78.4634Z" fill="#667EBD"/>
<path d="M163.022 117.827H132.965C128.539 117.827 125.104 113.993 125.534 109.597L127.218 93.1709H168.769L170.454 109.597C170.882 114.026 167.448 117.827 163.022 117.827Z" fill="#A2B396"/>
<path d="M126.259 56.187H122.692V81.2065H126.259V56.187Z" fill="#667EBD"/>
<path d="M168.835 56.5176H165.268V81.2396H168.835V56.5176Z" fill="#667EBD"/>
<path d="M94.2215 188.126L93.693 191.167H205.068L204.341 188.126" stroke="#A2B396" stroke-width="0.325919" stroke-miterlimit="10"/>
<path d="M127.019 95.022H169.198" stroke="black" stroke-width="0.325919" stroke-miterlimit="10"/>
<path d="M6.22927 83.9829C5.79989 83.9829 5.37051 83.9168 4.94112 83.7516C2.86027 83.0244 1.7703 80.7439 2.46392 78.6947C5.00717 71.3574 8.40921 65.6396 12.5709 61.6074C17.5253 56.8481 23.6027 54.4023 30.605 54.4023C32.8179 54.4023 34.6015 56.187 34.6015 58.4015C34.6015 60.6159 32.8179 62.4006 30.605 62.4006C21.1255 62.4006 14.3875 68.5812 9.9946 81.3058C9.43311 82.9584 7.88074 83.9829 6.22927 83.9829Z" fill="#A2B396"/>
<path d="M1.27466 105.566C3.52066 81.6693 10.3908 58.4346 30.6378 58.4346" stroke="black" stroke-width="0.325919" stroke-miterlimit="10"/>
<path d="M-3.11743 104.474C-2.55593 74.3317 1.57273 40.4214 27.4677 40.4214" stroke="black" stroke-width="0.325919" stroke-miterlimit="10"/>
<path d="M33.9407 46.8996C30.3734 46.8996 27.4669 43.9912 27.4339 40.4217C27.4008 36.8521 30.3405 33.9436 33.9076 33.9106H38.3005V46.8996H33.9407Z" fill="#667EBD"/>
<path d="M42.032 46.9324C42.032 45.8417 39.3566 45.8417 39.3566 44.7841C39.3566 43.6934 42.032 43.6934 42.032 42.6027C42.032 41.5121 39.3566 41.5121 39.3566 40.4544C39.3566 39.3637 42.032 39.3637 42.032 38.2731C42.032 37.1823 39.3566 37.1823 39.3566 36.1248C39.3566 35.0341 42.032 35.0341 42.032 33.9434H38.696V46.9324H42.032Z" fill="#EA5937"/>
<path d="M42.9905 37.1163C43.5377 37.1163 43.9814 36.6725 43.9814 36.1249C43.9814 35.5773 43.5377 35.1333 42.9905 35.1333C42.4432 35.1333 41.9996 35.5773 41.9996 36.1249C41.9996 36.6725 42.4432 37.1163 42.9905 37.1163Z" fill="#EA5937"/>
<path d="M42.9905 41.4459C43.5377 41.4459 43.9814 41.002 43.9814 40.4544C43.9814 39.9068 43.5377 39.4629 42.9905 39.4629C42.4432 39.4629 41.9996 39.9068 41.9996 40.4544C41.9996 41.002 42.4432 41.4459 42.9905 41.4459Z" fill="#EA5937"/>
<path d="M42.9905 45.7097C43.5377 45.7097 43.9814 45.2657 43.9814 44.7181C43.9814 44.1705 43.5377 43.7266 42.9905 43.7266C42.4432 43.7266 41.9996 44.1705 41.9996 44.7181C41.9996 45.2657 42.4432 45.7097 42.9905 45.7097Z" fill="#EA5937"/>
<path d="M42.99 36.125H31.5288" stroke="black" stroke-width="0.325919" stroke-miterlimit="10"/>
<path d="M42.99 40.4546H31.5288" stroke="black" stroke-width="0.325919" stroke-miterlimit="10"/>
<path d="M42.99 44.7183H31.5288" stroke="black" stroke-width="0.325919" stroke-miterlimit="10"/>
<path d="M30.4393 34.9351C28.6226 36.0918 27.4336 38.1079 27.4336 40.4215C27.4336 42.735 28.6557 44.7511 30.4393 45.908C32.2889 44.7842 33.544 42.735 33.544 40.4215C33.544 38.0749 32.3219 36.0588 30.4393 34.9351Z" fill="#A2B396"/>
<path d="M-32.3156 125.825L-35.4204 101.235H17.3935L14.2227 125.825H-32.3156Z" fill="#667EBD"/>
<path d="M16.469 108.474L10.6558 153.754V211.559" stroke="black" stroke-width="0.325919" stroke-miterlimit="10"/>
<path d="M-28.7153 153.752H10.6556" stroke="black" stroke-width="0.325919" stroke-miterlimit="10"/>
<path d="M-28.7153 204.851H10.6556" stroke="black" stroke-width="0.325919" stroke-miterlimit="10"/>
<path d="M315.353 145.59H-90.5776V345.085H315.353V145.59Z" fill="#A2B396"/>
<path d="M225.844 49.908L233.308 37.3486L237.47 52.3207L225.844 49.908Z" fill="#667EBD"/>
<path opacity="0.5" d="M225.844 49.908L233.308 37.3486L237.47 52.3207L225.844 49.908Z" fill="black"/>
<path d="M237.701 52.1885L213.953 91.6513L198.33 88.3131L225.678 42.0088L237.701 52.1885Z" fill="#667EBD"/>
<path d="M213.291 90.5933L219.896 74.4975L220.458 70.0686C220.657 68.4492 222.01 67.1932 223.662 67.1602L223.167 75.2246L217.585 85.3052L213.291 90.5933Z" fill="black"/>
<path d="M213.291 90.5937L217.816 79.5547L224.521 82.8928L219.137 94.5267L213.291 90.5937Z" fill="black"/>
<path d="M219.864 86.5282L233.506 60.9468C231.986 60.1866 230.136 60.7155 229.31 62.2027L216.693 84.7764L219.864 86.5282Z" fill="black"/>
<path d="M219.897 74.4643L211.937 90.8576L220.294 97.0712L223.464 91.3864L228.484 81.9669L235.157 64.1855L226.535 77.3728L220.722 79.5542L219.897 74.4643Z" fill="black"/>
<path d="M222.572 91.2879L227.923 81.0751L238.063 57.4106L230.301 70.598L220.161 88.8752L222.572 91.2879Z" fill="black"/>
<path d="M221.978 87.685L238.063 57.3772C236.313 56.4188 234.1 57.0798 233.175 58.8646L218.874 85.9663L221.978 87.685Z" fill="black"/>
<path d="M235.817 61.773C234.991 61.3433 234.695 60.3188 235.124 59.4925C235.553 58.6663 236.577 58.3687 237.402 58.7984" stroke="#A2B396" stroke-width="0.325919" stroke-miterlimit="10"/>
<path d="M231.291 65.111C230.499 64.6813 230.201 63.7229 230.631 62.9296C231.06 62.1364 232.018 61.839 232.81 62.2686" stroke="#A2B396" stroke-width="0.325919" stroke-miterlimit="10"/>
<path d="M223.365 71.8537C222.407 71.8206 221.648 71.0274 221.68 70.069C221.714 69.1105 222.506 68.3503 223.464 68.3834" stroke="#A2B396" stroke-width="0.325919" stroke-miterlimit="10"/>
<path d="M223.332 73.5723L223.167 77.8688" stroke="#A2B396" stroke-width="0.325919" stroke-miterlimit="10"/>
<path d="M216.067 91.1224C211.08 88.3792 204.837 89.8995 201.7 94.6259L190.271 111.746L182.707 76.6792H172.799L177.125 134.849C177.224 142.087 183.103 147.904 190.37 147.904C195.457 147.904 199.882 145.029 202.096 140.765L202.195 140.864L220.427 106.028C223.301 100.707 221.384 94.0309 216.067 91.1224Z" fill="#F8B566"/>
<path d="M173.327 84.5449L175.408 112.407" stroke="black" stroke-width="0.325919" stroke-miterlimit="10"/>
<path d="M218.016 103.78C218.49 103.78 218.874 103.396 218.874 102.921C218.874 102.447 218.49 102.062 218.016 102.062C217.541 102.062 217.156 102.447 217.156 102.921C217.156 103.396 217.541 103.78 218.016 103.78Z" stroke="black" stroke-width="0.325919" stroke-miterlimit="10"/>
<path d="M199.419 98.0303L218.544 109.532" stroke="black" stroke-width="0.325919" stroke-miterlimit="10"/>
<path d="M46.6579 188.325L40.3823 183.896C40.2172 183.765 39.953 183.831 39.8208 183.996L35.8243 189.813L32.7195 187.829L37.9051 179.071C38.4996 178.08 39.7878 177.749 40.7787 178.344L40.9438 178.443L49.7626 183.731L46.6579 188.325Z" fill="black"/>
<path d="M62.314 158.084L57.1284 181.186L41.8027 185.285L27.402 187.07C27.402 189.317 29.2846 191.134 31.5306 191.068L42.4634 190.705L68.094 189.747L78.9938 160.067L62.314 158.084Z" fill="black"/>
<path d="M70.4388 183.169L68.6222 189.217C68.4571 189.813 68.0606 190.341 67.4992 190.672L61.0255 194.671C60.5961 194.968 60.1336 195.2 59.6382 195.332L45.0392 196.72C43.9493 197.05 42.7602 196.522 42.2978 195.498C41.8354 194.406 42.2648 193.151 43.2887 192.588L56.5004 189.349L70.4388 183.169Z" fill="black"/>
<path d="M33.7763 186.21C33.9414 187.466 33.0827 188.623 31.8606 188.788C30.6055 188.954 29.4494 188.094 29.2843 186.871" stroke="#A2B396" stroke-width="0.325919" stroke-miterlimit="10"/>
<path d="M44.5442 195.53C45.1827 195.53 45.7002 195.013 45.7002 194.374C45.7002 193.735 45.1827 193.217 44.5442 193.217C43.9057 193.217 43.3882 193.735 43.3882 194.374C43.3882 195.013 43.9057 195.53 44.5442 195.53Z" stroke="#A2B396" stroke-width="0.325919" stroke-miterlimit="10"/>
<path d="M113.08 98.03C109.513 102.029 105.351 111.284 98.8114 124.075C91.8422 137.691 86.7556 155.77 82.693 164.363C80.6452 168.693 76.2853 171.469 71.4961 171.469C63.5361 171.469 57.6898 164.098 59.4404 156.332C63.7342 137.459 68.5234 120.505 70.4062 113.96C70.9346 112.077 71.6943 110.292 72.6521 108.607L94.6497 69.5401C99.2077 61.4757 107.729 56.5181 116.977 56.5181L117.208 78.4639L113.08 98.03Z" fill="#F8B566"/>
<path d="M62.9418 162.05C63.4161 162.05 63.8006 161.666 63.8006 161.191C63.8006 160.716 63.4161 160.331 62.9418 160.331C62.4675 160.331 62.083 160.716 62.083 161.191C62.083 161.666 62.4675 162.05 62.9418 162.05Z" stroke="black" stroke-width="0.325919" stroke-miterlimit="10"/>
<path d="M60.0681 154.911L84.0805 161.19" stroke="black" stroke-width="0.325919" stroke-miterlimit="10"/>
<path d="M94.1553 180.028H96.8637C98.317 180.028 99.473 178.872 99.473 177.417H103.833C103.833 177.417 104.097 204.915 99.8693 212.418C92.9992 206.304 94.1553 180.028 94.1553 180.028Z" fill="#F1EFE0"/>
<path d="M103.832 159.966V177.384H99.4728V159.966C99.4728 158.776 100.464 157.785 101.652 157.785C102.875 157.785 103.832 158.776 103.832 159.966Z" fill="#F8B566"/>
<path d="M99.4728 161.619H103.832" stroke="black" stroke-width="0.325919" stroke-miterlimit="10"/>
<path d="M175.87 208.982H138.68C125.402 208.982 114.667 198.207 114.667 184.954C114.667 171.667 125.434 160.926 138.68 160.926H175.87V208.982Z" fill="#F1EFE0"/>
<path d="M181.913 160.892H175.869V208.982H181.913V160.892Z" stroke="#F1EFE0" stroke-width="0.325919" stroke-miterlimit="10"/>
<path d="M178.876 165.421V203.165" stroke="black" stroke-width="0.325919" stroke-miterlimit="10"/>
<path d="M148.984 189.085C148.092 191.134 145.879 192.522 143.501 192.522C140.462 192.522 137.986 190.044 137.986 187.002C137.986 184.424 139.769 182.243 142.147 181.648C141.619 180.69 139.867 177.649 139.867 177.649C134.616 177.649 130.355 181.913 130.355 187.168C130.355 192.423 134.616 196.687 139.867 196.687C144.36 196.687 148.158 193.547 149.149 189.349L148.984 189.085Z" fill="#EA5937"/>
<path d="M142.708 178.476L139.834 177.616L142.147 181.649L143.27 179.996L142.708 178.476Z" fill="#A2B396"/>
<path d="M150.14 199.165C156.448 191.366 157.077 182.045 155.986 173.915L164.574 174.708C164.574 174.741 166.258 199.761 150.14 199.165Z" fill="#EA5937"/>
<path d="M160.743 171.337L164.574 174.741L156.02 173.915L160.743 171.337Z" fill="#A2B396"/>
<path d="M148.026 178.476C143.996 178.476 141.056 179.732 141.056 179.732" stroke="black" stroke-width="0.325919" stroke-miterlimit="10"/>
<path d="M158.86 166.379C160.71 170.246 161.37 172.163 160.544 174.377" stroke="black" stroke-width="0.325919" stroke-miterlimit="10"/>
<path d="M-22.7369 242.099C-1.48543 242.099 15.7423 224.859 15.7423 203.594C15.7423 182.329 -1.48543 165.09 -22.7369 165.09C-43.9883 165.09 -61.2161 182.329 -61.2161 203.594C-61.2161 224.859 -43.9883 242.099 -22.7369 242.099Z" fill="#F1EFE0"/>
<path d="M-22.7362 235.72C-5.00529 235.72 9.3684 221.336 9.3684 203.594C9.3684 185.852 -5.00529 171.469 -22.7362 171.469C-40.4669 171.469 -54.8407 185.852 -54.8407 203.594C-54.8407 221.336 -40.4669 235.72 -22.7362 235.72Z" stroke="black" stroke-width="0.325919" stroke-miterlimit="10"/>
<path d="M-22.7372 232.184C-6.95815 232.184 5.83326 219.384 5.83326 203.595C5.83326 187.806 -6.95815 175.006 -22.7372 175.006C-38.5162 175.006 -51.3075 187.806 -51.3075 203.595C-51.3075 219.384 -38.5162 232.184 -22.7372 232.184Z" fill="#EA5937"/>
<path d="M256.527 203.76C267.107 203.76 275.683 195.177 275.683 184.59C275.683 174.003 267.107 165.421 256.527 165.421C245.946 165.421 237.37 174.003 237.37 184.59C237.37 195.177 245.946 203.76 256.527 203.76Z" fill="#F1EFE0"/>
<path d="M206.585 197.942L209.558 193.282C210.714 192.059 212.695 192.092 213.786 193.415C215.172 195.066 214.281 197.578 212.167 198.008L206.585 197.942Z" fill="#F1EFE0"/>
<path d="M207.676 189.58L210.648 184.92C211.804 183.697 213.786 183.73 214.876 185.052C216.263 186.705 215.372 189.217 213.258 189.646L207.676 189.58Z" fill="#F1EFE0"/>
<path d="M206.322 201.379L203.349 196.719C202.193 195.496 200.212 195.53 199.121 196.851C197.734 198.504 198.626 201.016 200.74 201.446L206.322 201.379Z" fill="#F1EFE0"/>
<path d="M207.18 192.852L205.925 187.465C205.231 185.911 203.348 185.317 201.895 186.176C200.046 187.266 200.046 189.943 201.895 191.034L207.18 192.852Z" fill="#F1EFE0"/>
<path d="M209.294 183.862L208.039 178.475C207.345 176.921 205.462 176.326 204.009 177.186C202.16 178.276 202.16 180.953 204.009 182.045L209.294 183.862Z" fill="#F1EFE0"/>
<path d="M211.573 179.269L216.065 177.913C217.485 177.748 218.74 178.871 218.74 180.327C218.74 182.144 216.758 183.301 215.173 182.409L211.573 179.269Z" fill="#F1EFE0"/>
<path d="M217.354 174.74L220.524 172.261C221.614 171.699 222.968 172.195 223.398 173.352C223.959 174.806 222.737 176.326 221.184 176.128L217.354 174.74Z" fill="#F1EFE0"/>
<path d="M213.985 176.591L214.975 171.997C215.009 170.543 213.787 169.419 212.367 169.551C210.55 169.716 209.559 171.766 210.583 173.286L213.985 176.591Z" fill="#F1EFE0"/>
<path d="M206.322 204.222C206.322 194.835 207.94 177.12 217.519 174.74" stroke="black" stroke-width="0.325919" stroke-miterlimit="10"/>
<path d="M260.853 173.485L257.913 171.502C257.55 171.271 257.121 171.105 256.658 171.105C256.229 171.105 255.833 171.237 255.502 171.436L252.233 173.485C247.542 175.237 244.207 179.765 244.207 185.052C244.207 191.861 249.723 197.414 256.559 197.414C263.397 197.414 268.912 191.894 268.912 185.052C268.879 179.765 265.543 175.237 260.853 173.485Z" fill="#EA5937"/>
<path d="M258.41 172.956C262.769 174.079 266.039 179.071 266.039 185.086C266.039 191.894 261.778 197.447 256.559 197.447C251.341 197.447 247.081 191.927 247.081 185.086C247.081 179.302 250.152 174.443 254.281 173.088" stroke="black" stroke-width="0.325919" stroke-miterlimit="10"/>
<path d="M256.527 197.414C260.376 197.414 263.496 191.879 263.496 185.053C263.496 178.226 260.376 172.692 256.527 172.692C252.678 172.692 249.557 178.226 249.557 185.053C249.557 191.879 252.678 197.414 256.527 197.414Z" stroke="black" stroke-width="0.325919" stroke-miterlimit="10"/>
<path d="M256.527 197.414C258.916 197.414 260.853 191.879 260.853 185.053C260.853 178.226 258.916 172.692 256.527 172.692C254.137 172.692 252.199 178.226 252.199 185.053C252.199 191.879 254.137 197.414 256.527 197.414Z" stroke="black" stroke-width="0.325919" stroke-miterlimit="10"/>
<path d="M351.42 31.2666H257.65V133.361H351.42V31.2666Z" fill="#A2B396"/>
<path d="M348.844 34.5059H260.227V63.9543H348.844V34.5059Z" stroke="black" stroke-width="0.325919" stroke-miterlimit="10"/>
<path d="M282.653 49.2134V54.5676H326.384V49.2134" stroke="black" stroke-width="0.325919" stroke-miterlimit="10"/>
<path d="M348.844 67.6226H260.227V97.071H348.844V67.6226Z" stroke="black" stroke-width="0.325919" stroke-miterlimit="10"/>
<path d="M282.653 82.3301V87.6843H326.384V82.3301" stroke="black" stroke-width="0.325919" stroke-miterlimit="10"/>
<path d="M348.844 100.74H260.227V130.188H348.844V100.74Z" stroke="black" stroke-width="0.325919" stroke-miterlimit="10"/>
<path d="M282.653 115.448V120.835H326.384V115.448" stroke="black" stroke-width="0.325919" stroke-miterlimit="10"/>
<path d="M351.42 27.8623H257.65V31.2666H351.42V27.8623Z" stroke="black" stroke-width="0.325919" stroke-miterlimit="10"/>
<path d="M267.625 163.173L275.221 133.361H282.851L270.432 164.132C270.201 164.693 269.673 165.09 269.045 165.09C268.054 165.09 267.328 164.132 267.625 163.173Z" fill="#A2B396"/>
<path opacity="0.5" d="M274.132 136.963L281.101 138.087L282.851 133.361H275.221L274.132 136.963Z" fill="black"/>
</svg>
