<svg width="20" height="20" viewBox="0 0 20 20" fill="none" xmlns="http://www.w3.org/2000/svg">
<g id="IMAGE" clip-path="url(#clip0_1_362)">
<g id="Group">
<path id="Vector" d="M1.43021 7.6203L5.11021 2.0003C5.31897 1.68469 5.60268 1.42572 5.93599 1.24656C6.26929 1.0674 6.6418 0.973633 7.02021 0.973633C7.39862 0.973633 7.77113 1.0674 8.10443 1.24656C8.43774 1.42572 8.72145 1.68469 8.93021 2.0003L12.6102 7.5903C12.8376 7.93538 12.9674 8.33556 12.9857 8.74841C13.0041 9.16125 12.9105 9.57138 12.7147 9.93531C12.5189 10.2992 12.2282 10.6034 11.8736 10.8155C11.5189 11.0276 11.1135 11.1399 10.7002 11.1403H3.34021C2.93164 11.1364 2.53153 11.0233 2.1814 10.8127C1.83127 10.6021 1.54387 10.3017 1.349 9.94256C1.15413 9.58343 1.0589 9.17871 1.07318 8.77036C1.08746 8.36202 1.21073 7.96494 1.43021 7.6203Z" fill="#391145" stroke="#391145" stroke-width="2" stroke-linecap="round" stroke-linejoin="round"/>
<path id="Vector_2" d="M9.9998 18.5005C8.4098 17.8705 7.7998 16.4005 7.7998 13.3605C7.7998 8.84053 9.3798 7.79053 13.3698 7.79053C17.3598 7.79053 18.9998 8.84053 18.9998 13.3605C18.9998 17.7105 17.4198 19.0005 13.3898 19.0005C12.2376 19.066 11.0841 18.8959 9.9998 18.5005Z" stroke="#391145" stroke-width="2" stroke-linecap="round" stroke-linejoin="round"/>
<path id="Vector_3" d="M7.87012 10.5303L15.6401 18.3103" stroke="#391145" stroke-width="2" stroke-linecap="round" stroke-linejoin="round"/>
<path id="Vector_4" d="M10.6699 7.72998L18.4099 15.47" stroke="#391145" stroke-width="2" stroke-linecap="round" stroke-linejoin="round"/>
</g>
</g>
<defs>
<clipPath id="clip0_1_362">
<rect width="20" height="20" fill="white"/>
</clipPath>
</defs>
</svg>
